{
    "asset" : {
        "generator" : "Khronos glTF Blender I/O v1.1.46",
        "version" : "2.0"
    },
    "extensionsUsed" : [
        "KHR_texture_transform"
    ],
    "extensionsRequired" : [
        "KHR_texture_transform"
    ],
    "scene" : 0,
    "scenes" : [
        {
            "name" : "Scene",
            "nodes" : [
                0,
                1,
                2,
                3,
                4,
                6,
                7
            ]
        }
    ],
    "nodes" : [
        {
            "name" : "Light",
            "rotation" : [
                0.16907575726509094,
                0.7558803558349609,
                -0.27217137813568115,
                0.570947527885437
            ],
            "translation" : [
                4.076245307922363,
                5.903861999511719,
                -1.0054539442062378
            ]
        },
        {
            "name" : "Camera",
            "rotation" : [
                0.483536034822464,
                0.33687159419059753,
                -0.20870360732078552,
                0.7804827094078064
            ],
            "translation" : [
                7.358891487121582,
                4.958309173583984,
                6.925790786743164
            ]
        },
        {
            "name" : "Camera.001",
            "rotation" : [
                0.8937963247299194,
                0.09062855690717697,
                -0.3857799172401428,
                0.20997287333011627
            ],
            "translation" : [
                7.358891487121582,
                4.958308696746826,
                6.925792217254639
            ]
        },
        {
            "name" : "Camera.002",
            "rotation" : [
                0.8937963247299194,
                0.09062855690717697,
                -0.3857799172401428,
                0.20997287333011627
            ],
            "translation" : [
                7.358891487121582,
                4.958308696746826,
                6.925792217254639
            ]
        },
        {
            "name" : "Camera.003",
            "rotation" : [
                -0.7804825901985168,
                0.20870345830917358,
                0.33687177300453186,
                0.4835361838340759
            ],
            "translation" : [
                7.358891487121582,
                4.958308219909668,
                6.925793647766113
            ]
        },
        {
            "mesh" : 0,
            "name" : "Teapot_OBJ_obj"
        },
        {
            "children" : [
                5
            ],
            "name" : "Connect",
            "rotation" : [
                0.7071068286895752,
                0,
                0,
                0.7071067094802856
            ],
            "scale" : [
                0.009999999776482582,
                0.009999999776482582,
                0.009999999776482582
            ],
            "translation" : [
                0,
                0,
                3.4530794620513916
            ]
        },
        {
            "mesh" : 1,
            "name" : "Teapot_OBJ_obj.003",
            "rotation" : [
                0.7071068286895752,
                0,
                0,
                0.7071067094802856
            ]
        }
    ],
    "materials" : [
        {
            "doubleSided" : true,
            "emissiveFactor" : [
                0,
                0,
                0
            ],
            "name" : "Mat.2",
            "pbrMetallicRoughness" : {
                "baseColorTexture" : {
                    "extensions" : {
                        "KHR_texture_transform" : {
                            "offset" : [
                                0,
                                -1
                            ]
                        }
                    },
                    "index" : 0,
                    "texCoord" : 0
                },
                "metallicFactor" : 0,
                "roughnessFactor" : 0.7267919778823853
            }
        },
        {
            "doubleSided" : true,
            "emissiveFactor" : [
                0,
                0,
                0
            ],
            "name" : "20190917_Deco1_ZB_Material_u1_v2",
            "pbrMetallicRoughness" : {
                "baseColorTexture" : {
                    "index" : 1,
                    "texCoord" : 0
                },
                "metallicFactor" : 1,
                "roughnessFactor" : 0.5527864098548889
            }
        },
        {
            "alphaCutoff" : 0.5,
            "alphaMode" : "MASK",
            "doubleSided" : true,
            "emissiveFactor" : [
                0,
                0,
                0
            ],
            "name" : "Mat.005",
            "pbrMetallicRoughness" : {
                "baseColorTexture" : {
                    "index" : 2,
                    "texCoord" : 0
                },
                "metallicFactor" : 1,
                "roughnessFactor" : 0.820494532585144
            }
        },
        {
            "alphaMode" : "BLEND",
            "doubleSided" : true,
            "emissiveFactor" : [
                0,
                0,
                0
            ],
            "name" : "20190917_Deco1_ZB_Material_u1_v1.003",
            "pbrMetallicRoughness" : {
                "baseColorTexture" : {
                    "index" : 3,
                    "texCoord" : 0
                },
                "metallicFactor" : 1,
                "roughnessFactor" : 1
            }
        }
    ],
    "meshes" : [
        {
            "name" : "Mesh",
            "primitives" : [
                {
                    "attributes" : {
                        "POSITION" : 0,
                        "NORMAL" : 1,
                        "TEXCOORD_0" : 2
                    },
                    "indices" : 3,
                    "material" : 0
                },
                {
                    "attributes" : {
                        "POSITION" : 4,
                        "NORMAL" : 5,
                        "TEXCOORD_0" : 6
                    },
                    "indices" : 7,
                    "material" : 1
                }
            ]
        },
        {
            "name" : "Teapot_OBJ_obj.003",
            "primitives" : [
                {
                    "attributes" : {
                        "POSITION" : 8,
                        "NORMAL" : 9,
                        "TEXCOORD_0" : 10
                    },
                    "indices" : 11,
                    "material" : 2
                },
                {
                    "attributes" : {
                        "POSITION" : 12,
                        "NORMAL" : 13,
                        "TEXCOORD_0" : 14
                    },
                    "indices" : 15,
                    "material" : 3
                }
            ]
        }
    ],
    "textures" : [
        {
            "source" : 0
        },
        {
            "source" : 1
        },
        {
            "source" : 0
        },
        {
            "source" : 1
        }
    ],
    "images" : [
        {
            "mimeType" : "image/png",
            "name" : "white_stone_01_basecolor",
            "uri" : "white_stone_01_basecolor.png"
        },
        {
            "mimeType" : "image/jpeg",
            "name" : "20190917_Deco1_ZB_u1_v1",
            "uri" : "20190917_Deco1_ZB_u1_v1.jpg"
        }
    ],
    "accessors" : [
        {
            "bufferView" : 0,
            "componentType" : 5126,
            "count" : 3521,
            "max" : [
                2.2788634300231934,
                4.188984394073486,
                0.46707192063331604
            ],
            "min" : [
                -0.8523634076118469,
                -0.0440506748855114,
                -1.9562475681304932
            ],
            "type" : "VEC3"
        },
        {
            "bufferView" : 1,
            "componentType" : 5126,
            "count" : 3521,
            "type" : "VEC3"
        },
        {
            "bufferView" : 2,
            "componentType" : 5126,
            "count" : 3521,
            "type" : "VEC2"
        },
        {
            "bufferView" : 3,
            "componentType" : 5123,
            "count" : 19080,
            "type" : "SCALAR"
        },
        {
            "bufferView" : 4,
            "componentType" : 5126,
            "count" : 107642,
            "max" : [
                2.067143440246582,
                1.689920425415039,
                0.451740026473999
            ],
            "min" : [
                0.5931376218795776,
                0.638145923614502,
                -3.030790090560913
            ],
            "type" : "VEC3"
        },
        {
            "bufferView" : 5,
            "componentType" : 5126,
            "count" : 107642,
            "type" : "VEC3"
        },
        {
            "bufferView" : 6,
            "componentType" : 5126,
            "count" : 107642,
            "type" : "VEC2"
        },
        {
            "bufferView" : 7,
            "componentType" : 5125,
            "count" : 245562,
            "type" : "SCALAR"
        },
        {
            "bufferView" : 8,
            "componentType" : 5126,
            "count" : 3558,
            "max" : [
                2.2788634300231934,
                4.188984394073486,
                0.46707192063331604
            ],
            "min" : [
                -0.8523634076118469,
                -0.0440506748855114,
                -1.9562475681304932
            ],
            "type" : "VEC3"
        },
        {
            "bufferView" : 9,
            "componentType" : 5126,
            "count" : 3558,
            "type" : "VEC3"
        },
        {
            "bufferView" : 10,
            "componentType" : 5126,
            "count" : 3558,
            "type" : "VEC2"
        },
        {
            "bufferView" : 11,
            "componentType" : 5123,
            "count" : 19680,
            "type" : "SCALAR"
        },
        {
            "bufferView" : 12,
            "componentType" : 5126,
            "count" : 99863,
            "max" : [
                2.067143440246582,
                1.689920425415039,
                0.451740026473999
            ],
            "min" : [
                0.5931376218795776,
                0.638145923614502,
                -3.030790090560913
            ],
            "type" : "VEC3"
        },
        {
            "bufferView" : 13,
            "componentType" : 5126,
            "count" : 99863,
            "type" : "VEC3"
        },
        {
            "bufferView" : 14,
            "componentType" : 5126,
            "count" : 99863,
            "type" : "VEC2"
        },
        {
            "bufferView" : 15,
            "componentType" : 5125,
            "count" : 510306,
            "type" : "SCALAR"
        }
    ],
    "bufferViews" : [
        {
            "buffer" : 0,
            "byteLength" : 42252,
            "byteOffset" : 0
        },
        {
            "buffer" : 0,
            "byteLength" : 42252,
            "byteOffset" : 42252
        },
        {
            "buffer" : 0,
            "byteLength" : 28168,
            "byteOffset" : 84504
        },
        {
            "buffer" : 0,
            "byteLength" : 38160,
            "byteOffset" : 112672
        },
        {
            "buffer" : 0,
            "byteLength" : 1291704,
            "byteOffset" : 150832
        },
        {
            "buffer" : 0,
            "byteLength" : 1291704,
            "byteOffset" : 1442536
        },
        {
            "buffer" : 0,
            "byteLength" : 861136,
            "byteOffset" : 2734240
        },
        {
            "buffer" : 0,
            "byteLength" : 982248,
            "byteOffset" : 3595376
        },
        {
            "buffer" : 0,
            "byteLength" : 42696,
            "byteOffset" : 4577624
        },
        {
            "buffer" : 0,
            "byteLength" : 42696,
            "byteOffset" : 4620320
        },
        {
            "buffer" : 0,
            "byteLength" : 28464,
            "byteOffset" : 4663016
        },
        {
            "buffer" : 0,
            "byteLength" : 39360,
            "byteOffset" : 4691480
        },
        {
            "buffer" : 0,
            "byteLength" : 1198356,
            "byteOffset" : 4730840
        },
        {
            "buffer" : 0,
            "byteLength" : 1198356,
            "byteOffset" : 5929196
        },
        {
            "buffer" : 0,
            "byteLength" : 798904,
            "byteOffset" : 7127552
        },
        {
            "buffer" : 0,
            "byteLength" : 2041224,
            "byteOffset" : 7926456
        }
    ],
    "buffers" : [
        {
            "byteLength" : 9967680,
            "uri" : "teapot-final-2.bin"
        }
    ]
}
